<?xml version="1.0" standalone="no"?>
<!DOCTYPE svg PUBLIC "-//W3C//DTD SVG 1.0//EN" "http://www.w3.org/TR/2001/REC-SVG-20010904/DTD/svg10.dtd">
<svg xmlns="http://www.w3.org/2000/svg" xmlns:xlink="http://www.w3.org/1999/xlink" id="body_1" width="16" height="16">

<g transform="matrix(0.25 0 0 0.25 0 0)">
	<g>
		<g>
            <path d="M28.8 47.4C 29.8 47.4 30.699999 48.2 30.699999 49.300003C 30.699999 50.300003 29.9 51.200005 28.8 51.200005C 27.8 51.200005 26.9 50.400005 26.9 49.300003C 26.9 48.2 27.8 47.4 28.8 47.4M58.2 35.8C 57.2 35.8 56.3 35 56.3 33.899998C 56.3 32.899998 57.1 31.999998 58.2 31.999998C 59.2 31.999998 60.100002 32.8 60.100002 33.899998C 60.1 34.9 59.2 35.8 58.2 35.8M58.2 28.1C 55 28.1 52.4 30.7 52.4 33.9C 52.4 34.5 52.5 35.100002 52.7 35.7L52.7 35.7L33.6 45.9C 32.5 44.300003 30.699999 43.4 28.8 43.4C 26.599998 43.4 24.599998 44.7 23.599998 46.600002L23.599998 46.600002L6.4 37.6C 4.6000004 36.6 3.2 33.699997 3.4 30.899998C 3.5 29.499998 4 28.399998 4.7 27.999998C 5.2 27.699999 5.7 27.799997 6.3999996 28.099998L6.3999996 28.099998L6.4999995 28.199999C 11.099999 30.599998 26 38.399998 26.6 38.699997C 27.6 39.1 28.1 39.299995 29.800001 38.499996L29.800001 38.499996L60.6 22.499996C 61.1 22.299995 61.6 21.899996 61.6 21.199997C 61.6 20.299997 60.699997 19.899998 60.699997 19.899998C 58.899998 19.099998 56.199997 17.799997 53.6 16.599998C 48 13.999998 41.6 10.999998 38.8 9.499998C 36.399998 8.199998 34.399998 9.299998 34.1 9.499998L34.1 9.499998L33.399998 9.799998C 20.7 16.2 3.9 24.5 2.9 25.1C 1.2 26.1 0.10000014 28.2 0 30.8C -0.2 34.899998 1.9 39.199997 4.9 40.699997L4.9 40.699997L23.1 50.1C 23.5 52.899998 26 55.1 28.8 55.1C 32 55.1 34.5 52.6 34.6 49.399998L34.6 49.399998L54.6 38.6C 55.6 39.399998 56.899998 39.8 58.199997 39.8C 61.399998 39.8 63.999996 37.2 63.999996 34C 64 30.7 61.4 28.1 58.2 28.1" stroke="none" fill="#4285FD" fill-rule="nonzero" />
		</g>
	</g>
</g>
</svg>